<svg xmlns="http://www.w3.org/2000/svg" width="172" height="16" fill="none"><path d="M29.8 15.91V.25h19.3v3.07H32.88v3.2h13.25V9.6H32.87v3.24H49.1v3.07H29.79ZM70.56 12.44c0 2.32-2.3 3.47-6.9 3.47h-5.5c-1.5 0-2.9-.23-4.23-.7-1.8-.65-2.69-1.57-2.69-2.77V.24h3.08v11.37c0 .82 1.27 1.23 3.83 1.23h5.51c2.55 0 3.82-.4 3.82-1.23V.25h3.08v12.19ZM87.48 15.91l-9.88-5.34h-1.84v5.34h-3.08V.25H85.1c1.96 0 3.41.15 4.37.44 1.69.54 2.52 1.56 2.52 3.06v3.8c0 1-.56 1.79-1.69 2.36-.93.47-1.96.7-3.08.7h-3.81l10.03 5.3h-5.96Zm1.44-11.57c0-.68-1.27-1.02-3.82-1.02h-9.34v4.23h11.46c.33 0 .68-.07 1.04-.2.44-.17.66-.4.66-.68V4.34ZM134.3 7.54c0 1.3-.89 2.25-2.65 2.85-1.22.42-2.64.63-4.26.63h-9.33v4.9h-3.08V.25h12.4c4.61 0 6.92 1.17 6.92 3.5v3.8Zm-3.08-2.92c0-.87-1.28-1.3-3.83-1.3h-9.33v4.62h9.33c.86 0 1.6-.07 2.22-.2 1.08-.22 1.61-.59 1.61-1.11V4.62ZM155.31 12.44c0 1.3-.87 2.25-2.62 2.86-1.26.41-2.7.62-4.28.62h-5.5c-1.51 0-2.92-.23-4.24-.68-1.78-.61-2.67-1.54-2.67-2.8v-8.7c0-1.34.87-2.3 2.6-2.88 1.21-.4 2.64-.61 4.31-.61h5.5c4.6 0 6.9 1.17 6.9 3.5v8.69Zm-3.07-7.89c0-.82-1.23-1.23-3.69-1.23h-5.79c-2.4 0-3.6.41-3.6 1.23v7.1c0 .8 1.2 1.2 3.6 1.2h5.8c2.45 0 3.68-.4 3.68-1.2v-7.1ZM108.47.36c-.67-.08-1.4-.11-2.2-.11h-5.5c-.96 0-1.85.07-2.65.2-.6.1-1.15.24-1.65.41-1.74.58-2.61 1.54-2.61 2.89v3.44a54.4 54.4 0 0 0 3.16-.77V4.55c0-.82 1.2-1.23 3.6-1.23h5.04a56.32 56.32 0 0 0 5.03-2.51 10.5 10.5 0 0 0-2.22-.45ZM109 3.58c.73.2 1.1.53 1.1.97v.31c.92-.5 1.42-.82 1.42-.82s.6.41 1.65 1v-1.3c0-.2-.02-.4-.06-.6-1-.57-1.59-.96-1.59-.96s-.9.57-2.51 1.4ZM97.02 8.28c-1.02.28-2.07.54-3.16.77v1.86c1.09-.22 2.14-.48 3.16-.76V8.28Z" fill="#fff"/><path d="M110.1 6.73v1.86c.92-.5 1.42-.82 1.42-.82s.6.41 1.65 1V6.9c-1.04-.58-1.65-1-1.65-1s-.5.32-1.42.83ZM97.1 11.99c-1.03.28-2.1.55-3.21.78.08.64.42 1.19 1 1.64 1.96-.45 3.8-1 5.5-1.57-1.9-.02-2.99-.3-3.28-.85ZM110.1 10.45v1.2c0 .8-1.23 1.2-3.7 1.2h-1.2c-2.13.92-4.7 1.9-7.55 2.71 1 .24 2.03.36 3.12.36h5.5c1.59 0 3.02-.2 4.28-.62 1.75-.6 2.62-1.56 2.62-2.86v-1.8c-1.04-.6-1.64-1-1.64-1s-.51.31-1.43.81Z" fill="#FFD200"/><path d="M157.3 15.92V.25h3.07v12.6h10.92v3.07H157.3ZM23 1.9c0-.87-.7-1.57-1.57-1.57h-4.08c.2.14 2.42 1.6 5.64 2.95V1.89ZM1.56.33C.7.33 0 1.03 0 1.89v5.19A55.1 55.1 0 0 0 17.3.33H1.57ZM23 7V5.14c-3.39-1.41-5.67-2.96-5.67-2.96S10.2 6.84 0 8.94v1.87c10.21-2.1 17.33-6.77 17.33-6.77S19.6 5.6 22.99 7Z" fill="#fff"/><path d="M23 10.73V8.87a35.9 35.9 0 0 1-5.67-2.96S10.2 10.57 0 12.67V14.53c10.22-2.1 17.33-6.76 17.33-6.76s2.28 1.55 5.66 2.96Z" fill="#FFD200"/><path d="M23 14.37V12.6a35.85 35.85 0 0 1-5.67-2.96s-6.18 4.05-15.3 6.3h19.4c.86 0 1.56-.7 1.56-1.57Z" fill="#FFD200"/></svg>